<svg width="15" height="13" viewBox="0 0 15 13" xmlns="http://www.w3.org/2000/svg"><title>Combined Shape</title><path d="M11 4v1.382c0 .34.276.618.618.618.128 0 .25-.044.348-.114l2.592-1.98c.082-.058.152-.132.214-.218.382-.512.272-1.238-.236-1.618L11.968.114c-.1-.07-.222-.114-.35-.114-.342 0-.618.276-.618.618V2H4c-.552 0-1 .446-1 1s.448 1 1 1h7zm-7 7h7c.552 0 1-.446 1-1s-.448-1-1-1H4V7.618C4 7.276 3.724 7 3.382 7c-.128 0-.25.044-.35.114L.464 9.07c-.508.38-.618 1.106-.236 1.618.062.086.132.16.214.218l2.592 1.98c.098.07.22.114.348.114.342 0 .618-.278.618-.618V11z" fill="#00B9FF" fill-rule="evenodd"/></svg>