<?xml version="1.0" encoding="UTF-8"?>
<svg width="56px" height="56px" viewBox="0 0 56 56" version="1.1" xmlns="http://www.w3.org/2000/svg" xmlns:xlink="http://www.w3.org/1999/xlink">
    <title>T+L_Icon_ExclusiveExeriences</title>
    <g id="Current" stroke="none" stroke-width="1" fill="none" fill-rule="evenodd">
        <g id="MVP2--T+L---Free-Trial---Step-1-v2" transform="translate(-869.000000, -459.000000)" fill="#000000" fill-rule="nonzero">
            <g id="T+L_Icon_ExclusiveExeriences" transform="translate(869.000000, 459.000000)">
                <rect id="Rectangle" x="26.9120654" y="0" width="2.18732106" height="7.31779141"></rect>
                <polygon id="Rectangle" transform="translate(37.122252, 4.118178) rotate(45.000000) translate(-37.122252, -4.118178) " points="36.028591 0.45928277 38.2159121 0.45928277 38.2159121 7.77707418 36.028591 7.77707418"></polygon>
                <polygon id="Rectangle" transform="translate(18.882145, 4.124382) rotate(135.000000) translate(-18.882145, -4.124382) " points="17.7884845 0.465486343 19.9758055 0.465486343 19.9758055 7.78327775 17.7884845 7.78327775"></polygon>
                <polygon id="Rectangle" transform="translate(24.432720, 27.261350) rotate(90.000000) translate(-24.432720, -27.261350) " points="23.3390593 23.602454 25.5263804 23.602454 25.5263804 30.9202454 23.3390593 30.9202454"></polygon>
                <polygon id="Rectangle" transform="translate(31.613088, 27.261350) rotate(90.000000) translate(-31.613088, -27.261350) " points="30.5194274 25.7439673 32.7067485 25.7439673 32.7067485 28.7787321 30.5194274 28.7787321"></polygon>
                <path d="M45.1893661,9.3791411 L10.8335378,9.3791411 L0,22.4343558 L28.1145194,55.2670757 L56,22.4343558 L45.1893661,9.3791411 Z M13.0323108,23.8658487 L23.3390593,44.8229039 L5.33660532,23.8658487 L13.0323108,23.8658487 Z M16.4678937,23.8658487 L39.5206544,23.8658487 L28.0687117,48.3386503 L16.4678937,23.8658487 Z M42.9447853,23.8658487 L50.6633947,23.8658487 L32.7869121,44.9488753 L42.9447853,23.8658487 Z M43.5173824,12.2764826 L50.7092025,20.9685072 L42.9791411,20.9685072 L37.4134969,12.2764826 L43.5173824,12.2764826 Z M33.9550102,12.2764826 L39.5092025,20.9685072 L16.4793456,20.9685072 L22.0335378,12.2764826 L33.9550102,12.2764826 Z M12.4482618,12.2764826 L18.5635992,12.2764826 L13.009407,20.9685072 L5.26789366,20.9685072 L12.4482618,12.2764826 Z" id="Shape"></path>
            </g>
        </g>
    </g>
</svg>